<svg width="110" height="62" viewBox="0 0 110 62" fill="none" xmlns="http://www.w3.org/2000/svg">
<path d="M100.166 3.04164L100.166 3.0417L54.9995 48.2163L9.8337 3.04253C9.83357 3.0424 9.83343 3.04227 9.8333 3.04213C9.36312 2.57087 8.80461 2.19696 8.18974 1.94182C7.57469 1.6866 6.91534 1.55524 6.24945 1.55524C5.58356 1.55524 4.92421 1.6866 4.30916 1.94182C3.69451 2.19687 3.13617 2.5706 2.6661 3.04163C2.19507 3.51171 1.82133 4.07005 1.56627 4.68471C1.31106 5.29975 1.17969 5.9591 1.17969 6.625C1.17969 7.29089 1.31106 7.95024 1.56627 8.56529C1.82139 9.1801 2.19526 9.73857 2.66646 10.2087C2.66664 10.2089 2.66681 10.2091 2.66699 10.2092L51.4152 58.9575C51.8855 59.4289 52.4441 59.803 53.0592 60.0582C53.6742 60.3134 54.3336 60.4448 54.9994 60.4448C55.6653 60.4448 56.3247 60.3134 56.9397 60.0582C57.5548 59.803 58.1134 59.4289 58.5837 58.9575L107.333 10.2084C107.803 9.73778 108.177 9.17913 108.431 8.5643C108.686 7.94946 108.817 7.29048 108.817 6.625C108.817 5.95951 108.686 5.30053 108.431 4.6857C108.177 4.07086 107.803 3.51221 107.333 3.04164C106.862 2.57107 106.304 2.19779 105.689 1.94311C105.074 1.68844 104.415 1.55736 103.749 1.55736C103.084 1.55736 102.425 1.68844 101.81 1.94311C101.195 2.19779 100.637 2.57107 100.166 3.04164Z" fill="black" stroke="black" stroke-width="2"/>
</svg>
